<?xml version="1.0" encoding="utf-8"?>
<!-- Generator: Adobe Illustrator 16.0.0, SVG Export Plug-In . SVG Version: 6.00 Build 0)  -->
<!DOCTYPE svg PUBLIC "-//W3C//DTD SVG 1.1//EN" "http://www.w3.org/Graphics/SVG/1.1/DTD/svg11.dtd">
<svg version="1.1" id="圖層_1" xmlns="http://www.w3.org/2000/svg" xmlns:xlink="http://www.w3.org/1999/xlink" x="0px" y="0px"
	 width="500px" height="500px" viewBox="0 0 500 500" enable-background="new 0 0 500 500" xml:space="preserve">
<path fill="none" stroke="#000000" stroke-miterlimit="10" d="M-499.457,363.797l-0.092-0.092
	C-499.518,363.736-499.487,363.766-499.457,363.797z"/>
<path d="M373.768,160.647l-0.051-0.051L250,36.878L126.277,160.602l-0.041,0.041C94.579,192.31,75,236.052,75,284.366
	c0,48.301,19.569,92.031,51.211,123.697l0.092,0.092c2.257,2.255,4.582,4.441,6.959,6.571C103.442,384.873,85,343.651,85,298.122
	c0-91.127,73.873-165,165-165c91.128,0,165,73.873,165,165c0,45.524-18.436,86.741-48.25,116.595
	C402.5,382.675,425,336.151,425,284.366C425,236.054,405.422,192.314,373.768,160.647z"/>
<path d="M250,158.122c-85.604,0-155,69.396-155,155c0,59.849,33.923,111.766,83.585,137.594
	C146.197,428.129,125,390.604,125,348.122c0-69.036,55.964-125,124.999-125c37.936,0,71.922,16.903,94.848,43.586
	c-37.682-56.648-113.42-74.979-173.167-40.483c-17.85,10.306-32.324,24.211-43.051,40.262
	c11.832-23.855,30.581-44.609,55.371-58.922c66.961-38.66,152.584-15.717,191.243,51.242
	c35.516,61.517,19.037,138.78-35.797,180.914C379.107,411.647,405,365.41,405,313.122C405,227.518,335.605,158.122,250,158.122z"/>
<path d="M250,233.122c-63.512,0-115,51.488-115,115.001c0,63.512,51.488,114.999,115,114.999c63.511,0,115-51.487,115-114.999
	C365,284.61,313.512,233.122,250,233.122z M171.769,307.168c10.569-32.983,34.693-57.845,64.246-70.412
	c-17.855,13.695-31.868,32.775-39.256,55.825c-5.037,15.724-6.492,31.733-4.826,47.158c8.374-4.323,18.399-5.443,28.081-2.341
	c19.337,6.199,29.993,26.901,23.795,46.241c-3.438,10.726-11.337,18.771-20.986,22.762c-7.755,3.204-16.64,3.796-25.255,1.033
	c-8.313-2.665-15.018-8.017-19.473-14.782c-1.976-4.014-3.718-8.146-5.219-12.373C164.789,357.495,163.822,331.972,171.769,307.168z
	 M324.389,388.673c-2.547,3.681-5.311,7.212-8.273,10.577c-15.977,18.146-37.807,31.403-63.348,36.519
	c-33.958,6.802-67.413-2.186-92.765-21.898c20.647,8.943,44.138,11.907,67.872,7.153c16.186-3.239,30.881-9.759,43.549-18.711
	c-7.846-5.219-13.703-13.432-15.699-23.4c-3.986-19.912,8.918-39.289,28.834-43.278c11.043-2.211,21.916,0.777,30.096,7.271
	c6.57,5.218,11.404,12.691,13.184,21.562C329.551,373.025,328.137,381.493,324.389,388.673z M350.424,394.07
	c-2.584-22.352-11.756-44.173-27.744-62.354c-10.898-12.396-23.895-21.867-37.982-28.359c-0.594,9.404-4.775,18.581-12.412,25.297
	c-15.248,13.409-38.485,11.918-51.893-3.334c-7.44-8.455-10.291-19.366-8.756-29.697c1.236-8.299,5.291-16.224,12.086-22.198
	c6.551-5.767,14.59-8.771,22.685-9.116c4.459,0.365,8.902,0.988,13.294,1.876c23.705,4.764,46.102,17.04,63.301,36.601
	C345.871,328.794,354.82,362.262,350.424,394.07z"/>
</svg>
